
<svg aria-hidden="true" style="position: absolute; width: 0; height: 0; overflow: hidden;" version="1.1" xmlns="http://www.w3.org/2000/svg" xmlns:xlink="http://www.w3.org/1999/xlink">
<defs>
<symbol id="icon-current-location" viewBox="0 0 24 24"> 
<path d="M20.94 11c-.46-4.17-3.77-7.48-7.94-7.94V1h-2v2.06C6.83 3.52 3.52 6.83 3.06 11H1v2h2.06c.46 4.17 3.77 7.48 7.94 7.94V23h2v-2.06c4.17-.46 7.48-3.77 7.94-7.94H23v-2h-2.06zM12 19c-3.87 0-7-3.13-7-7s3.13-7 7-7 7 3.13 7 7-3.13 7-7 7z"/>
</symbol>
<symbol id="icon-search" viewBox="0 0 24 24"><path d="M15.5 14h-.79l-.28-.27C15.41 12.59 16 11.11 16 9.5 16 5.91 13.09 3 9.5 3S3 5.91 3 9.5 5.91 16 9.5 16c1.61 0 3.09-.59 4.23-1.57l.27.28v.79l5 4.99L20.49 19l-4.99-5zm-6 0C7.01 14 5 11.99 5 9.5S7.01 5 9.5 5 14 7.01 14 9.5 11.99 14 9.5 14z"></path> </symbol>
<symbol id="icon-mylocation" viewBox="0 0 24 24"><path d="M12 8c-2.21 0-4 1.79-4 4s1.79 4 4 4 4-1.79 4-4-1.79-4-4-4zm8.94 3c-.46-4.17-3.77-7.48-7.94-7.94V1h-2v2.06C6.83 3.52 3.52 6.83 3.06 11H1v2h2.06c.46 4.17 3.77 7.48 7.94 7.94V23h2v-2.06c4.17-.46 7.48-3.77 7.94-7.94H23v-2h-2.06zM12 19c-3.87 0-7-3.13-7-7s3.13-7 7-7 7 3.13 7 7-3.13 7-7 7z"/> <symbol/>


<symbol id="icon-feelslike" viewBox="0 0 250.189 250.189"><path d="M159.845,147.251V34.744C159.845,15.586,144.255,0,125.093,0c-19.159,0-34.746,15.586-34.746,34.744v112.506
		c-14.234,10.843-22.617,27.59-22.617,45.575c0,31.631,25.732,57.364,57.363,57.364c31.633,0,57.367-25.733,57.367-57.364
		C182.46,174.842,174.077,158.095,159.845,147.251z M125.093,235.189c-23.359,0-42.363-19.004-42.363-42.364
		c0-14.294,7.188-27.537,19.228-35.425c2.115-1.386,3.39-3.745,3.39-6.273V34.744c0-10.887,8.858-19.744,19.746-19.744
		c10.892,0,19.752,8.857,19.752,19.744v116.383c0,2.529,1.274,4.887,3.39,6.273c12.038,7.889,19.226,21.132,19.226,35.425
		C167.46,216.185,148.454,235.189,125.093,235.189z"/>
	<path d="M132.595,169.042V69.924c0-4.142-3.357-7.5-7.5-7.5s-7.5,3.358-7.5,7.5v99.118c-10.104,3.183-17.43,12.622-17.43,23.783
		c0,13.767,11.16,24.931,24.93,24.931c13.773,0,24.932-11.164,24.932-24.931C150.026,181.663,142.7,172.223,132.595,169.042z"/> </symbol>
    <symbol id="icon-wind" viewBox="0 0 368 368"><path d="M296,48c-39.704,0-72,32.304-72,72c0,4.416,3.576,8,8,8s8-3.584,8-8c0-30.88,25.128-56,56-56s56,25.12,56,56
			s-25.128,56-56,56H8c-4.416,0-8,3.584-8,8s3.584,8,8,8h288c39.704,0,72-32.304,72-72S335.704,48,296,48z"/><path d="M144,32c-30.88,0-56,25.12-56,56c0,4.416,3.584,8,8,8s8-3.584,8-8c0-22.056,17.944-40,40-40c22.056,0,40,17.944,40,40
			c0,22.056-17.944,40-40,40H8c-4.416,0-8,3.584-8,8s3.584,8,8,8h136c30.88,0,56-25.12,56-56S174.88,32,144,32z"/> <path d="M280,224H8c-4.416,0-8,3.584-8,8c0,4.416,3.584,8,8,8h272c22.056,0,40,17.944,40,40c0,22.056-17.944,40-40,40
			c-22.056,0-40-17.944-40-40c0-4.416-3.576-8-8-8s-8,3.584-8,8c0,30.88,25.128,56,56,56s56-25.12,56-56S310.872,224,280,224z"/> </symbol>
      <symbol id="icon-eye" viewBox="0 0 512.001 512.001"><path d="M503.698,231.895c-28.735-36.843-65.956-67.318-107.637-88.128c-42.548-21.243-88.321-32.265-136.104-32.843
			c-1.316-0.036-6.6-0.036-7.916,0c-47.782,0.579-93.556,11.6-136.104,32.843c-41.681,20.81-78.9,51.284-107.636,88.128
			c-11.07,14.193-11.07,34.018,0,48.211c28.735,36.843,65.955,67.318,107.636,88.128c42.548,21.243,88.321,32.265,136.104,32.843
			c1.316,0.036,6.6,0.036,7.916,0c47.782-0.579,93.556-11.6,136.104-32.843c41.681-20.81,78.901-51.284,107.637-88.128
			C514.768,265.911,514.768,246.088,503.698,231.895z M125.242,349.599c-38.92-19.432-73.678-47.892-100.517-82.303
			c-5.187-6.651-5.187-15.94,0-22.591c26.838-34.411,61.596-62.871,100.517-82.303c11.054-5.518,22.342-10.29,33.839-14.33
			c-29.578,26.588-48.213,65.12-48.213,107.928c0,42.81,18.636,81.345,48.217,107.932
			C147.588,359.892,136.297,355.118,125.242,349.599z M256,380.303c-68.542,0-124.304-55.762-124.304-124.304
			S187.458,131.696,256,131.696S380.304,187.458,380.304,256S324.542,380.303,256,380.303z M487.275,267.295
			c-26.838,34.411-61.596,62.871-100.517,82.303c-11.041,5.512-22.322,10.263-33.805,14.299
			c29.558-26.587,48.179-65.107,48.179-107.898c0-42.814-18.64-81.351-48.223-107.939c11.5,4.041,22.793,8.819,33.85,14.34
			c38.92,19.432,73.678,47.892,100.517,82.303C492.462,251.355,492.462,260.644,487.275,267.295z"/> <path d="M256,202.804c-29.332,0-53.195,23.863-53.195,53.195s23.863,53.195,53.195,53.195s53.195-23.863,53.195-53.195
			C309.196,226.667,285.333,202.804,256,202.804z M256,288.367c-17.847,0-32.368-14.519-32.368-32.368
			c0-17.848,14.519-32.367,32.368-32.367c17.847,0,32.367,14.519,32.367,32.367C288.368,273.848,273.847,288.367,256,288.367z"/></symbol>
      <symbol id="icon-humidity" viewBox="0 0 18 18"><path d="M16.998 9.0625C17.2454 9.49219 17.431 9.94466 17.5547 10.4199C17.6784 10.8952 17.7435 11.3802 17.75 11.875C17.75 12.6497 17.6035 13.3789 17.3105 14.0625C17.0176 14.7461 16.6139 15.3418 16.0996 15.8496C15.5853 16.3574 14.9896 16.7578 14.3125 17.0508C13.6354 17.3438 12.9062 17.4935 12.125 17.5C11.3503 17.5 10.6211 17.3535 9.9375 17.0605C9.25391 16.7676 8.6582 16.3639 8.15039 15.8496C7.64258 15.3353 7.24219 14.7396 6.94922 14.0625C6.65625 13.3854 6.50651 12.6562 6.5 11.875C6.5 11.3867 6.56185 10.9049 6.68555 10.4297C6.80924 9.95443 6.99805 9.4987 7.25195 9.0625L12.125 0.625L16.998 9.0625ZM12.125 16.25C12.7305 16.25 13.2969 16.1361 13.8242 15.9082C14.3516 15.6803 14.8138 15.3678 15.2109 14.9707C15.6081 14.5736 15.9206 14.1113 16.1484 13.584C16.3763 13.0566 16.4935 12.487 16.5 11.875C16.5 11.4909 16.4512 11.1133 16.3535 10.7422C16.2559 10.3711 16.1094 10.0195 15.9141 9.6875L12.125 3.125L8.33594 9.6875C8.14714 10.0195 8.00391 10.3711 7.90625 10.7422C7.80859 11.1133 7.75651 11.4909 7.75 11.875C7.75 12.4805 7.86393 13.0469 8.0918 13.5742C8.31966 14.1016 8.63216 14.5638 9.0293 14.9609C9.42643 15.3581 9.88867 15.6706 10.416 15.8984C10.9434 16.1263 11.513 16.2435 12.125 16.25ZM0.25 1.25H4V17.5H0.25V16.25H2.75V13.75H1.5V12.5H2.75V10H0.25V8.75H2.75V6.25H1.5V5H2.75V2.5H0.25V1.25Z"></path> </symbol>
      <symbol id="icon-pressure" viewBox="0 0 128 128"><path d="M64,0a64,64,0,1,0,64,64A64.073,64.073,0,0,0,64,0Zm0,124.5A60.5,60.5,0,1,1,124.5,64,60.568,60.568,0,0,1,64,124.5Z"/><path d="M64,8a56,56,0,1,0,56,56A56.064,56.064,0,0,0,64,8Zm0,108.5A52.5,52.5,0,1,1,116.5,64,52.559,52.559,0,0,1,64,116.5Z"/><path d="M64,31.13a1.751,1.751,0,0,0,1.75-1.75V19.755a1.75,1.75,0,1,0-3.5,0V29.38A1.751,1.751,0,0,0,64,31.13Z"/><path d="M88.478,41.269a1.743,1.743,0,0,0,1.237-.513l6.806-6.8a1.75,1.75,0,1,0-2.475-2.475l-6.805,6.806a1.75,1.75,0,0,0,1.237,2.987Z"/><path d="M38.285,87.238l-6.806,6.805a1.75,1.75,0,1,0,2.475,2.475l6.805-6.806a1.749,1.749,0,1,0-2.474-2.474Z"/><path d="M108.242,62.247H98.617a1.75,1.75,0,0,0,0,3.5h9.625a1.75,1.75,0,0,0,0-3.5Z"/><path d="M29.383,62.247H19.758a1.75,1.75,0,1,0,0,3.5h9.625a1.75,1.75,0,0,0,0-3.5Z"/><path d="M89.715,87.238a1.749,1.749,0,0,0-2.474,2.474l6.805,6.806a1.75,1.75,0,0,0,2.475-2.475Z"/><path d="M33.954,31.476a1.75,1.75,0,1,0-2.475,2.475l6.806,6.805a1.749,1.749,0,0,0,2.474-2.474Z"/><path d="M76.8,94.989a1.744,1.744,0,0,0-1.829-.409,32.6,32.6,0,0,1-21.938,0,1.748,1.748,0,0,0-1.829.409l-7.63,7.63a1.75,1.75,0,0,0,.476,2.813,45.957,45.957,0,0,0,39.9,0,1.75,1.75,0,0,0,.476-2.813ZM64,106.489A41.992,41.992,0,0,1,47.842,103.3l5.063-5.063a36.11,36.11,0,0,0,22.19,0l5.063,5.063A41.992,41.992,0,0,1,64,106.489Z"/><path d="M64,83.185a10.461,10.461,0,0,0,6.04-19.008L65.719,41.362a1.75,1.75,0,0,0-3.438,0L57.96,64.177A10.461,10.461,0,0,0,64,83.185ZM60.438,66.736a1.749,1.749,0,0,0,.822-1.177L64,51.093l2.74,14.466a1.748,1.748,0,0,0,.821,1.177,6.969,6.969,0,1,1-7.123,0Z"/> </symbol>
      <symbol id="icon-dewpoint" viewBox="0 0 14 24"><path d="M14 9.75C14 10.6094 13.8477 11.4258 13.543 12.1992C13.2383 12.9648 12.8164 13.6484 12.2773 14.25C11.7383 14.8516 11.1016 15.3477 10.3672 15.7383C9.64062 16.1211 8.85156 16.3633 8 16.4648V24H6.5V16.4648C5.64844 16.3633 4.85547 16.1211 4.12109 15.7383C3.39453 15.3477 2.76172 14.8516 2.22266 14.25C1.68359 13.6484 1.26172 12.9648 0.957031 12.1992C0.652344 11.4258 0.5 10.6094 0.5 9.75C0.5 8.84375 0.667969 7.98437 1.00391 7.17188C1.34766 6.35156 1.83984 5.62109 2.48047 4.98047C3.28516 4.17578 4.07812 3.37891 4.85938 2.58984C5.64844 1.80078 6.44531 1.00391 7.25 0.199219C8.05469 1.00391 8.84766 1.80078 9.62891 2.58984C10.418 3.37891 11.2148 4.17578 12.0195 4.98047C12.6602 5.62109 13.1484 6.35156 13.4844 7.17188C13.8281 7.98437 14 8.84375 14 9.75ZM8 14.9414C8.64844 14.8555 9.24609 14.6602 9.79297 14.3555C10.3398 14.043 10.8125 13.6562 11.2109 13.1953C11.6094 12.7266 11.9219 12.1992 12.1484 11.6133C12.375 11.0195 12.4883 10.3984 12.4883 9.75C12.4883 9.05469 12.3555 8.38672 12.0898 7.74609C11.832 7.09766 11.457 6.52734 10.9648 6.03516L7.25 2.32031L3.53516 6.03516C3.04297 6.52734 2.66406 7.09766 2.39844 7.74609C2.13281 8.38672 2 9.05469 2 9.75C2 10.3984 2.11328 11.0195 2.33984 11.6133C2.56641 12.1992 2.87891 12.7266 3.27734 13.1953C3.67578 13.6562 4.14844 14.043 4.69531 14.3555C5.25 14.6602 5.85156 14.8555 6.5 14.9414V6H8V14.9414Z"></path> </symbol>
      <symbol id="icon-chevron-left" viewBox="0 0 24 24"><path d="M15.41 7.41L14 6l-6 6 6 6 1.41-1.41L10.83 12l4.58-4.59z"/></symbol>
      <symbol id="icon-chevron-right" viewBox="0 0 24 24"><path d="M10 6L8.59 7.41 13.17 12l-4.58 4.59L10 18l6-6-6-6z"/></symbol>
</defs>
</svg>